<svg id="Capa_1" enable-background="new 0 0 512 512" height="512" viewBox="0 0 512 512" width="512" xmlns="http://www.w3.org/2000/svg"><g><path d="m419.28 176.72c-7.55-7.56-17.59-11.72-28.28-11.72-7.14 0-14.14 1.9-20.25 5.5-1.09-9.7-5.69-18.65-12.97-25.21-7.35-6.63-16.86-10.29-26.78-10.29h-.17c-8.47 0-16.18 2.11-22.31 6.1-2.81-7.57-7.79-14.05-14.4-18.75-6.78-4.8-14.78-7.35-23.12-7.35-7.03 0-13.95 1.85-20 5.35v-80.35c0-10.69-4.16-20.73-11.72-28.28-7.55-7.56-17.59-11.72-28.28-11.72s-20.73 4.16-28.28 11.72c-7.56 7.55-11.72 17.59-11.72 28.28v180.38c-2.28-5.99-5.51-11.46-9.6-16.27-3.8-4.49-8.27-8.32-13.29-11.39-5.11-3.14-10.69-5.54-16.57-7.12-5.37-1.44-10.87-2.18-16.34-2.19-3.11 0-6.11.25-8.92.74-7.38 1.39-14.08 5.48-19.36 11.82-3.82 4.7-5.92 10.74-5.92 17 0 1.42.11 2.84.33 4.21 2.24 14.16 7.63 38.04 16 70.97 6.38 25.05 13.19 50.03 16.09 59.72 5.06 16.86 12.86 33.16 23.2 48.47 8.21 12.16 18.06 23.75 29.28 34.47 12.916 12.319 24.641 20.582 31.1 24.766v46.424c0 5.523 4.477 10 10 10h158c5.523 0 10-4.477 10-10v-46.444c7.386-4.699 13.737-9.314 19.28-14.016 7.84-6.67 14.2-13.59 19.43-21.15 5.63-8.1 9.94-17.16 12.81-26.93 3-10.21 4.5-21.46 4.48-33.46v-34.92c0-5.51-4.49-10-10-10s-10 4.49-10 10v34.92c-.05 19.86-4.41 35.43-13.74 49.02-7.6 11.01-18.74 20.86-35.07 30.98h-152.42c-4.86-3.02-17.65-11.52-31.71-25.25-15.31-14.94-35.63-39.66-45.48-72.62-2.33-7.78-8.98-31.88-15.87-58.91-4.64-18.21-15.71-69.85-15.71-70.25 0-1.68.52-3.27 1.44-4.38 1.85-2.42 5.43-4.53 7.27-4.74 1.65-.29 3.555-.582 5.49-.44 5.804.425 16.04 2.36 22.4 6.33 7.87 4.93 13.01 11.72 15.71 20.75l17.92 81.65c.49 2.23 1.74 4.24 3.52 5.67 2.06 1.64 4.72 2.41 7.33 2.13 5.08-.55 8.92-4.82 8.92-9.94v-270c.02-11.01 8.99-19.98 20-20 11.01.02 19.98 8.99 20 20v200c0 5.51 4.49 10 10 10s10-4.49 10-10v-85c.02-11.01 8.99-19.98 20-20 11.01.02 19.98 8.99 20 20v90c0 5.51 4.49 10 10 10s10-4.49 10-10v-69.99c0-.005 0-.007 0-.01s0-.005 0-.01c-.02-.71.5-6.85 3.2-11.46 1.47-2.58 3.21-4.43 5.49-5.83 3.02-1.82 6.62-2.68 11.31-2.7 11.01.02 19.98 8.99 20 20v76c0 5.51 4.49 10 10 10s10-4.49 10-10v-46c.02-11.01 8.99-19.98 20-20 11.01.02 19.98 8.99 20 20v30.08c0 5.52 4.49 10 10 10s10-4.48 10-10v-30.08c0-10.69-4.16-20.73-11.72-28.28zm-64.28 283.28v32h-138v-32z"/><circle cx="421" cy="280.08" r="10"/></g></svg>